<svg xmlns="http://www.w3.org/2000/svg" viewBox="0 0 24 24" shape-rendering="crispEdges">

<g id="libro-leyendas">
<g id="tapa"><path fill="#5a2a86" d="M3 3h18v18h-18z"></path><path fill="#3a1a5a" d="M3 3h2.4v18h-2.4z"></path><path fill="#f4c430" d="M16.5 3.5h2v0.7h-2z"></path><path fill="#f4c430" d="M16.5 3.5h0.7v2h-0.7z"></path><path fill="#f4c430" d="M16.5 17.8h2v0.7h-2z"></path><path fill="#f4c430" d="M16.5 17.8h0.7v2h-0.7z"></path><path fill="#f4c430" d="M3.5 17.8h2v0.7h-2z"></path><path fill="#f4c430" d="M3.5 17.8h0.7v2h-0.7z"></path></g><g id="paginas"><path fill="#e8d9b5" d="M6.4 4.5h13.6v15h-13.6z"></path><path fill="#c9b98a" d="M8 7h10v0.5h-10z"></path><path fill="#c9b98a" d="M8 9h10v0.5h-10z"></path><path fill="#c9b98a" d="M8 11h7v0.5h-7z"></path></g><g id="gema"><path fill="#00e5ff" d="M13 13.55l0.65 1.3 1.3 0.65 -1.3 0.65 -0.65 1.3 -0.65 -1.3 -1.3 -0.65z"></path><path fill="#0091b3" d="M11.7 14.2h2.6v2.6h-2.6z"></path></g>
</g>
</svg>