<svg xmlns="http://www.w3.org/2000/svg" viewBox="0 0 32 32" shape-rendering="crispEdges"><path fill="#3a0d0d" d="M4 2h8v2h-8zM20 2h8v2h-8zM4 4h8v2h-8zM20 4h8v2h-8zM0 6h32v2h-32zM0 8h32v2h-32zM0 10h32v2h-32zM0 12h32v2h-32zM0 14h32v2h-32zM0 16h32v2h-32zM4 18h24v2h-24zM4 20h24v2h-24zM8 22h16v2h-16zM8 24h16v2h-16zM12 26h8v2h-8zM12 28h8v2h-8z"></path><path fill="#e63946" d="M8 2h4v2h-4zM20 2h4v2h-4zM8 4h4v2h-4zM20 4h4v2h-4zM4 6h24v2h-24zM4 8h24v2h-24zM8 10h20v2h-20zM8 12h20v2h-20zM8 14h12v2h-12zM24 14h4v2h-4zM8 16h12v2h-12zM24 16h4v2h-4zM12 18h8v2h-8zM12 20h8v2h-8z"></path><path fill="#ffb3c1" d="M4 10h4v2h-4zM4 12h4v2h-4z"></path><path fill="#a4161a" d="M4 14h4v2h-4zM20 14h4v2h-4zM4 16h4v2h-4zM20 16h4v2h-4zM8 18h4v2h-4zM20 18h4v2h-4zM8 20h4v2h-4zM20 20h4v2h-4zM12 22h8v2h-8zM12 24h8v2h-8z"></path></svg>